<svg width="1568" height="377" viewBox="0 0 1568 377" fill="none" xmlns="http://www.w3.org/2000/svg">
<circle cx="114.5" cy="122.5" r="114.5" fill="url(#paint0_radial_20_2)"/>
<path d="M176.804 0C177.712 0 178.501 0.626562 178.71 1.51397L232.892 231.037C233.476 233.509 231.61 235.881 229.08 235.881H168.152C166.554 235.881 165.167 234.774 164.806 233.209C158.872 207.474 130.032 194.639 107.071 207.516L56.4932 235.881H56.2666C56.0541 235.959 55.8273 236 55.5957 236L1.97935 235.971C0.111837 235.97 -0.69536 233.594 0.781855 232.446L34.3822 206.34L0.751052 179.736C-0.716172 178.575 0.111699 176.206 1.97916 176.221L60.9533 176.706C61.1908 176.708 61.4225 176.753 61.6388 176.837C94.1403 135.786 114.505 86.3506 120.36 34.1735L121.616 22.982C122.21 17.682 121.726 12.3158 120.194 7.20926L119.248 4.05813C118.641 2.03678 120.147 2.99385e-05 122.249 0H176.804Z" fill="#1D1E18"/>
<path d="M1495.58 236C1494.01 234.029 1490.6 226.342 1485.35 212.939C1480.23 199.405 1474.2 184.163 1467.24 167.212C1460.42 150.131 1454.39 137.188 1449.14 128.384V236H1384V5H1449.14V115.573L1498.14 5H1563.67L1505.03 113.404C1508.83 116.032 1513.88 123.194 1520.18 134.888C1526.48 146.583 1532.38 158.869 1537.89 171.746C1543.4 184.623 1549.11 197.566 1555.01 210.574C1560.92 223.451 1565.24 231.927 1568 236H1495.58Z" fill="#1D1E18"/>
<path d="M1259.23 159.387V236H1194V5.76799H1219.93C1226.22 5.76799 1235.59 5.50606 1248.03 4.98222C1260.47 4.3274 1270.75 4 1278.87 4C1307.17 4 1328.25 10.2207 1342.14 22.6622C1356.15 35.1036 1363.16 54.1586 1363.16 79.8273C1363.16 95.0189 1359.82 108.508 1353.14 120.295C1346.59 132.081 1337.88 141.445 1327.01 148.386C1332.9 149.827 1337.95 153.166 1342.14 158.405C1346.46 163.643 1349.8 169.864 1352.16 177.067C1354.51 184.139 1356.54 191.342 1358.25 198.676C1360.08 205.879 1362.11 213.016 1364.34 220.088C1366.7 227.16 1369.25 232.464 1372 236H1299.5C1298.06 234.167 1296.95 229.059 1296.16 220.677C1295.38 212.165 1294.26 202.015 1292.82 190.229C1291.51 178.311 1289.61 168.358 1287.13 160.369C1286.86 160.369 1286.54 160.369 1286.14 160.369C1283.65 160.369 1280.97 160.369 1278.09 160.369C1275.34 160.238 1272.91 160.107 1270.82 159.976C1268.72 159.845 1266.5 159.714 1264.14 159.583C1261.91 159.452 1260.28 159.387 1259.23 159.387ZM1259.23 122.848H1265.51C1268.79 122.848 1271.54 122.717 1273.77 122.456C1275.99 122.194 1278.42 121.735 1281.04 121.08C1283.79 120.295 1286.01 119.116 1287.72 117.544C1289.55 115.973 1291.25 113.943 1292.82 111.455C1294.4 108.966 1295.57 105.758 1296.36 101.829C1297.15 97.9001 1297.54 93.3164 1297.54 88.0779V72.5589C1297.54 61.1651 1294.53 53.2419 1288.5 48.7892C1282.61 44.2055 1274.09 41.9136 1262.96 41.9136H1259.23V122.848Z" fill="#1D1E18"/>
<path d="M1114.89 236L1106.04 199.142H1050.24L1042.77 236H985L1044.93 20.965L1040.22 5H1121.37L1187 236H1114.89ZM1075.59 72.802L1058.29 158.934H1096.41L1075.59 72.802Z" fill="#1D1E18"/>
<path d="M872.922 236L808 5H880.375L897.439 84.628L915.091 168.198L931.763 84.628L949.416 5H1001L944.12 236H872.922Z" fill="#1D1E18"/>
<path d="M715.691 203.462C725.656 203.462 733.261 197.317 738.506 185.026C743.882 172.735 746.57 152.469 746.57 124.226V104.418C746.57 83.7587 744.079 67.807 739.096 56.5623C734.113 45.3176 727.033 39.6953 717.854 39.6953H703.103V203.462H715.691ZM721.788 237C717.067 237 709.725 236.739 699.759 236.215C689.925 235.823 679.763 235.627 669.273 235.627H638V5.76515H669.273C678.058 5.63439 687.63 5.30752 697.989 4.78451C708.348 4.26151 716.477 4 722.378 4C755.814 4 779.744 13.3488 794.168 32.0463C808.723 50.7438 816 78.0056 816 113.832C816 125.992 815.148 137.563 813.443 148.546C811.87 159.529 808.854 170.578 804.396 181.692C799.937 192.675 794.299 202.155 787.481 210.13C780.662 218.106 771.615 224.579 760.338 229.547C749.062 234.516 736.211 237 721.788 237Z" fill="#1D1E18"/>
<path d="M512.861 159.387V236H448V5.76799H473.788C480.04 5.76799 489.352 5.50606 501.725 4.98222C514.098 4.3274 524.322 4 532.397 4C560.53 4 581.499 10.2207 595.305 22.6622C609.241 35.1036 616.209 54.1586 616.209 79.8273C616.209 95.0189 612.887 108.508 606.245 120.295C599.733 132.081 591.072 141.445 580.262 148.386C586.123 149.827 591.137 153.166 595.305 158.405C599.603 163.643 602.924 169.864 605.268 177.067C607.613 184.139 609.631 191.342 611.325 198.676C613.148 205.879 615.167 213.016 617.381 220.088C619.725 227.16 622.265 232.464 625 236H552.911C551.478 234.167 550.371 229.059 549.589 220.677C548.808 212.165 547.701 202.015 546.268 190.229C544.966 178.311 543.077 168.358 540.603 160.369C540.342 160.369 540.017 160.369 539.626 160.369C537.151 160.369 534.481 160.369 531.616 160.369C528.881 160.238 526.471 160.107 524.387 159.976C522.304 159.845 520.089 159.714 517.745 159.583C515.531 159.452 513.903 159.387 512.861 159.387ZM512.861 122.848H519.113C522.369 122.848 525.104 122.717 527.318 122.456C529.532 122.194 531.942 121.735 534.546 121.08C537.281 120.295 539.496 119.116 541.189 117.544C543.012 115.973 544.705 113.943 546.268 111.455C547.831 108.966 549.003 105.758 549.785 101.829C550.566 97.9001 550.957 93.3164 550.957 88.0779V72.5589C550.957 61.1651 547.961 53.2419 541.97 48.7892C536.109 44.2055 527.644 41.9136 516.573 41.9136H512.861V122.848Z" fill="#1D1E18"/>
<path d="M367.885 236L359.043 199.142H303.237L295.77 236H238L297.932 20.965L293.216 5H374.37L440 236H367.885ZM328.586 72.802L311.294 158.934H349.414L328.586 72.802Z" fill="#1D1E18"/>
<path d="M1535.75 374.006H1526.03V287.07H1494.04V278.43H1567.74V287.07H1535.75V374.006Z" fill="#FDA10D"/>
<path d="M1469.78 359.831H1470.05V278.43H1479.77V374.006H1467.62L1412 291.794H1411.73V374.006H1402.01V278.43H1414.16L1469.78 359.831Z" fill="#FDA10D"/>
<path d="M1331.84 365.366H1383.01V374.006H1322.12V278.43H1381.39V287.07H1331.84V320.008H1378.15V328.513H1331.84V365.366Z" fill="#FDA10D"/>
<path d="M1249.8 357.537H1249.94L1281.93 278.43H1296.78V374.006H1287.06V290.984H1286.79L1252.23 374.006H1247.1L1212.54 290.984H1212.27V374.006H1202.55V278.43H1217.4L1249.8 357.537Z" fill="#FDA10D"/>
<path d="M1169.85 295.574C1166.52 292.064 1162.56 289.364 1157.97 287.475C1153.38 285.495 1148.11 284.505 1142.17 284.505C1136.05 284.505 1130.52 285.63 1125.57 287.879C1120.71 290.129 1116.57 293.189 1113.15 297.059C1109.73 300.839 1107.07 305.249 1105.18 310.289C1103.38 315.328 1102.48 320.638 1102.48 326.218C1102.48 331.798 1103.38 337.107 1105.18 342.147C1107.07 347.187 1109.73 351.597 1113.15 355.377C1116.57 359.156 1120.71 362.171 1125.57 364.421C1130.52 366.671 1136.05 367.796 1142.17 367.796C1147.57 367.796 1152.52 367.211 1157.02 366.041C1161.52 364.871 1165.17 363.386 1167.96 361.586V332.563H1145.68V324.058H1177.67V367.121C1172.46 370.271 1166.83 372.611 1160.8 374.141C1154.77 375.671 1148.52 376.436 1142.04 376.436C1134.84 376.436 1128.18 375.176 1122.06 372.656C1115.94 370.136 1110.67 366.671 1106.26 362.261C1101.85 357.762 1098.39 352.452 1095.87 346.332C1093.44 340.212 1092.22 333.508 1092.22 326.218C1092.22 318.928 1093.48 312.223 1096 306.104C1098.52 299.984 1101.99 294.719 1106.4 290.309C1110.9 285.81 1116.16 282.3 1122.19 279.78C1128.31 277.26 1134.93 276 1142.04 276C1149.69 276 1156.35 277.125 1162.02 279.375C1167.69 281.625 1172.55 284.775 1176.6 288.824L1169.85 295.574Z" fill="#FDA10D"/>
<path d="M1004.53 374.006H993.863L1035.17 278.43H1044.62L1085.66 374.006H1074.86L1064.33 348.897H1014.92L1004.53 374.006ZM1018.57 339.987H1060.69L1039.63 289.229L1018.57 339.987Z" fill="#FDA10D"/>
<path d="M969.879 359.831H970.149V278.43H979.869V374.006H967.719L912.102 291.794H911.832V374.006H902.112V278.43H914.262L969.879 359.831Z" fill="#FDA10D"/>
<path d="M806.916 374.006H796.251L837.559 278.43H847.009L888.047 374.006H877.248L866.718 348.897H817.31L806.916 374.006ZM820.955 339.987H863.073L842.014 289.229L820.955 339.987Z" fill="#FDA10D"/>
<path d="M735.267 357.537H735.402L767.396 278.43H782.245V374.006H772.526V290.984H772.256L737.697 374.006H732.568L698.009 290.984H697.739V374.006H688.02V278.43H702.869L735.267 357.537Z" fill="#FDA10D"/>
<path d="M611.221 374.006H601.501V287.07H569.508V278.43H643.215V287.07H611.221V374.006Z" fill="#FDA10D"/>
<path d="M564.667 358.616C563.047 361.046 561.068 363.341 558.728 365.501C556.478 367.661 553.823 369.551 550.763 371.171C547.793 372.791 544.463 374.051 540.773 374.951C537.174 375.941 533.214 376.436 528.894 376.436C521.694 376.436 515.035 375.176 508.915 372.656C502.795 370.136 497.53 366.671 493.12 362.261C488.711 357.762 485.246 352.452 482.726 346.332C480.296 340.212 479.081 333.508 479.081 326.218C479.081 318.928 480.341 312.223 482.861 306.104C485.381 299.984 488.846 294.719 493.255 290.309C497.755 285.81 503.02 282.3 509.05 279.78C515.17 277.26 521.784 276 528.894 276C532.404 276 535.824 276.36 539.154 277.08C542.573 277.8 545.768 278.835 548.738 280.185C551.708 281.445 554.408 283.02 556.838 284.91C559.268 286.71 561.293 288.779 562.913 291.119L554.813 297.059C553.823 295.529 552.473 293.999 550.763 292.469C549.143 290.939 547.208 289.589 544.958 288.419C542.708 287.25 540.233 286.305 537.534 285.585C534.924 284.865 532.089 284.505 529.029 284.505C522.819 284.505 517.239 285.63 512.29 287.879C507.43 290.129 503.29 293.189 499.87 297.059C496.45 300.839 493.84 305.249 492.041 310.289C490.241 315.328 489.341 320.638 489.341 326.218C489.341 331.798 490.241 337.107 492.041 342.147C493.93 347.187 496.585 351.642 500.005 355.512C503.425 359.291 507.565 362.306 512.425 364.556C517.374 366.806 522.909 367.931 529.029 367.931C534.519 367.931 539.738 366.806 544.688 364.556C549.638 362.306 553.778 358.706 557.108 353.757L564.667 358.616Z" fill="#FDA10D"/>
<path d="M423.604 376.436C416.404 376.436 410.509 375.221 405.919 372.791C401.33 370.271 397.685 367.121 394.985 363.341C392.285 359.561 390.395 355.467 389.315 351.057C388.325 346.557 387.83 342.327 387.83 338.367V278.43H397.55V337.287C397.55 341.157 398 344.937 398.9 348.627C399.8 352.227 401.24 355.467 403.219 358.347C405.289 361.136 407.989 363.431 411.319 365.231C414.649 366.941 418.744 367.796 423.604 367.796C428.463 367.796 432.558 366.941 435.888 365.231C439.218 363.431 441.873 361.136 443.853 358.347C445.923 355.467 447.408 352.227 448.307 348.627C449.207 344.937 449.657 341.157 449.657 337.287V278.43H459.377V338.367C459.377 342.327 458.837 346.557 457.757 351.057C456.767 355.467 454.922 359.561 452.222 363.341C449.522 367.121 445.833 370.271 441.153 372.791C436.563 375.221 430.713 376.436 423.604 376.436Z" fill="#FDA10D"/>
<path d="M286.201 278.43H317.925C323.865 278.43 329.804 279.42 335.744 281.4C341.774 283.38 347.174 286.395 351.943 290.444C356.803 294.404 360.718 299.399 363.688 305.429C366.658 311.369 368.143 318.298 368.143 326.218C368.143 334.228 366.658 341.202 363.688 347.142C360.718 353.082 356.803 358.077 351.943 362.126C347.174 366.086 341.774 369.056 335.744 371.036C329.804 373.016 323.865 374.006 317.925 374.006H286.201V278.43ZM295.921 365.366H315.225C322.425 365.366 328.679 364.241 333.989 361.991C339.389 359.741 343.844 356.817 347.354 353.217C350.863 349.527 353.473 345.342 355.183 340.662C356.983 335.982 357.883 331.168 357.883 326.218C357.883 321.268 356.983 316.453 355.183 311.774C353.473 307.094 350.863 302.954 347.354 299.354C343.844 295.664 339.389 292.694 333.989 290.444C328.679 288.195 322.425 287.07 315.225 287.07H295.921V365.366Z" fill="#FDA10D"/>
<path d="M266.005 326.218C266.005 333.508 264.745 340.212 262.225 346.332C259.705 352.452 256.196 357.762 251.696 362.261C247.286 366.671 242.021 370.136 235.901 372.656C229.872 375.176 223.302 376.436 216.192 376.436C209.083 376.436 202.468 375.176 196.348 372.656C190.318 370.136 185.054 366.671 180.554 362.261C176.144 357.762 172.679 352.452 170.159 346.332C167.639 340.212 166.379 333.508 166.379 326.218C166.379 318.928 167.639 312.223 170.159 306.104C172.679 299.984 176.144 294.719 180.554 290.309C185.054 285.81 190.318 282.3 196.348 279.78C202.468 277.26 209.083 276 216.192 276C223.302 276 229.872 277.26 235.901 279.78C242.021 282.3 247.286 285.81 251.696 290.309C256.196 294.719 259.705 299.984 262.225 306.104C264.745 312.223 266.005 318.928 266.005 326.218ZM255.746 326.218C255.746 320.638 254.846 315.328 253.046 310.289C251.246 305.249 248.636 300.839 245.216 297.059C241.796 293.189 237.611 290.129 232.662 287.879C227.802 285.63 222.312 284.505 216.192 284.505C210.073 284.505 204.538 285.63 199.588 287.879C194.728 290.129 190.588 293.189 187.169 297.059C183.749 300.839 181.139 305.249 179.339 310.289C177.539 315.328 176.639 320.638 176.639 326.218C176.639 331.798 177.539 337.107 179.339 342.147C181.139 347.187 183.749 351.597 187.169 355.377C190.588 359.156 194.728 362.171 199.588 364.421C204.538 366.671 210.073 367.796 216.192 367.796C222.312 367.796 227.802 366.671 232.662 364.421C237.611 362.171 241.796 359.156 245.216 355.377C248.636 351.597 251.246 347.187 253.046 342.147C254.846 337.107 255.746 331.798 255.746 326.218Z" fill="#FDA10D"/>
<path d="M100.416 374.006H90.6968V278.43H118.776C123.455 278.43 127.775 278.88 131.735 279.78C135.785 280.68 139.25 282.165 142.13 284.235C145.099 286.215 147.394 288.824 149.014 292.064C150.634 295.304 151.444 299.264 151.444 303.944C151.444 307.454 150.814 310.649 149.554 313.528C148.294 316.408 146.584 318.928 144.424 321.088C142.265 323.158 139.7 324.823 136.73 326.083C133.76 327.343 130.52 328.153 127.01 328.513L154.954 374.006H143.075L116.616 329.323H100.416V374.006ZM100.416 320.953H117.291C125.12 320.953 131.15 319.558 135.38 316.768C139.61 313.888 141.725 309.614 141.725 303.944C141.725 300.794 141.14 298.139 139.97 295.979C138.8 293.819 137.18 292.064 135.11 290.714C133.04 289.364 130.52 288.375 127.55 287.745C124.58 287.115 121.295 286.8 117.696 286.8H100.416V320.953Z" fill="#FDA10D"/>
<path d="M12.3896 278.43H39.3885C44.2483 278.43 48.6581 278.97 52.6179 280.05C56.5778 281.04 59.9526 282.615 62.7425 284.775C65.6224 286.845 67.8273 289.499 69.3572 292.739C70.8872 295.889 71.6521 299.624 71.6521 303.944C71.6521 308.264 70.8422 312.043 69.2222 315.283C67.6923 318.433 65.4874 321.088 62.6075 323.248C59.8176 325.318 56.3978 326.893 52.3479 327.973C48.3881 329.053 43.9783 329.593 39.1185 329.593H22.1092V374.006H12.3896V278.43ZM22.1092 321.358H38.5785C46.2282 321.358 52.033 319.873 55.9928 316.903C59.9526 313.933 61.9325 309.614 61.9325 303.944C61.9325 298.004 59.8626 293.684 55.7228 290.984C51.673 288.195 45.9582 286.8 38.5785 286.8H22.1092V321.358Z" fill="#FDA10D"/>
<defs>
<radialGradient id="paint0_radial_20_2" cx="0" cy="0" r="1" gradientUnits="userSpaceOnUse" gradientTransform="translate(202.673 16.7755) rotate(132.208) scale(467.13)">
<stop stop-color="#FDA10D"/>
<stop offset="1" stop-color="#FDD51D"/>
</radialGradient>
</defs>
</svg>
