<svg width="335" height="339" viewBox="0 0 335 339" fill="none" xmlns="http://www.w3.org/2000/svg">
<circle cx="167.5" cy="169.464" r="167.5" fill="url(#paint0_radial_9_101)"/>
<path d="M253.564 0C254.866 0 255.998 0.899083 256.298 2.17246L334.004 331.525C334.841 335.073 332.164 338.477 328.536 338.477H241.157C238.865 338.477 236.875 336.888 236.358 334.643C227.848 297.714 186.486 279.297 153.557 297.774L81.02 338.477H80.6951C80.3903 338.589 80.0651 338.648 79.7328 338.647L2.8387 338.606C0.160392 338.605 -0.997255 335.195 1.1213 333.548L49.3094 296.087L1.07713 257.911C-1.0271 256.246 0.160193 252.846 2.83843 252.868L87.4165 253.564C87.7571 253.567 88.0895 253.632 88.3997 253.751C135.012 194.846 164.218 123.909 172.614 49.0372L174.416 32.978C175.268 25.3727 174.575 17.6725 172.376 10.3449L171.02 5.8232C170.15 2.92267 172.31 4.29602e-05 175.324 0H253.564Z" fill="#1D1E18"/>
<defs>
<radialGradient id="paint0_radial_9_101" cx="0" cy="0" r="1" gradientUnits="userSpaceOnUse" gradientTransform="translate(296.487 14.8017) rotate(132.208) scale(683.356)">
<stop stop-color="#FDA10D"/>
<stop offset="1" stop-color="#FDD51D"/>
</radialGradient>
</defs>
</svg>
